<svg xmlns="http://www.w3.org/2000/svg" viewBox="0 0 32 32" width="32" height="32">
  <!-- 渐变定义 -->
  <defs>
    <radialGradient id="orangeGradient" cx="0.3" cy="0.3" r="0.8">
      <stop offset="0%" stop-color="#FCD34D"/>
      <stop offset="100%" stop-color="#F59E0B"/>
    </radialGradient>
  </defs>

  <!-- 橙色圆形背景 -->
  <circle cx="16" cy="16" r="15" fill="url(#orangeGradient)" stroke="#D97706" stroke-width="1"/>

  <!-- 白色星星 -->
  <path d="M16 8l2.2 6.8h7.2l-5.8 4.2 2.2 6.8-5.8-4.2-5.8 4.2 2.2-6.8-5.8-4.2h7.2z"
        fill="white"
        stroke="#F59E0B"
        stroke-width="0.3"
        opacity="0.95"/>

  <!-- 月亮装饰 - 右上角 (对应Header中的Moon) -->
  <circle cx="25" cy="7" r="2.5" fill="#FEF3C7" opacity="0.9"/>
  <circle cx="25.5" cy="6.5" r="1.8" fill="#FCD34D" opacity="0.7"/>

  <!-- 太阳装饰 - 左下角 (对应Header中的Sun) -->
  <circle cx="7" cy="25" r="2.2" fill="#FBBF24" opacity="0.8"/>
  <!-- 太阳光芒 -->
  <path d="M7 21.5v1.5M7 27v1.5M10.5 25h-1.5M5 25H3.5M9.2 22.8l-1 1M5.8 28.2l-1 1M9.2 27.2l-1-1M5.8 23.8l-1-1"
        stroke="#F59E0B"
        stroke-width="0.6"
        opacity="0.6"/>
</svg>
